<?xml version="1.0" encoding="UTF-8" standalone="no"?>
<svg
   xmlns:dc="http://purl.org/dc/elements/1.1/"
   xmlns:cc="http://creativecommons.org/ns#"
   xmlns:rdf="http://www.w3.org/1999/02/22-rdf-syntax-ns#"
   xmlns:svg="http://www.w3.org/2000/svg"
   xmlns="http://www.w3.org/2000/svg"
   xmlns:sodipodi="http://sodipodi.sourceforge.net/DTD/sodipodi-0.dtd"
   xmlns:inkscape="http://www.inkscape.org/namespaces/inkscape"
   version="1.0"
   width="500" height="400" viewBox="50 0 500 400"
   inkscape:version="0.48.0 r9654"
   sodipodi:docname="Audio-level-compresion-diagram-01.svg">
  <metadata>
    <rdf:RDF>
      <cc:Work rdf:about="">
        <dc:format>image/svg+xml</dc:format>
        <dc:type rdf:resource="http://purl.org/dc/dcmitype/StillImage" />
        <dc:title></dc:title>
      </cc:Work>
    </rdf:RDF>
  </metadata>
  <defs>
    <marker
       refX="0"
       refY="0"
       orient="auto"
       style="overflow:visible"
       id="Arrow2Lend">
      <path
         d="M 8.7185878,4.0337352 L -2.2072895,0.016013256 L 8.7185884,-4.0017078 C 6.97309,-1.6296469 6.9831476,1.6157441 8.7185878,4.0337352 z "
         transform="matrix(-1.1, 0, 0, -1.1, 5.5, 0)"
         style="font-size:12px;fill-rule:evenodd;stroke-width:0.625;stroke-linejoin:round"
         id="path4114" />
    </marker>
    <marker
       refX="0"
       refY="0"
       orient="auto"
       style="overflow:visible"
       id="Arrow2Lstart">
      <path
         d="M 8.7185878,4.0337352 L -2.2072895,0.016013256 L 8.7185884,-4.0017078 C 6.97309,-1.6296469 6.9831476,1.6157441 8.7185878,4.0337352 z "
         transform="matrix(1.1, 0, 0, 1.1, -5.5, 0)"
         style="font-size:12px;fill-rule:evenodd;stroke-width:0.625;stroke-linejoin:round"
         id="path4117" />
    </marker>
  </defs>
  <path
     inkscape:connector-curvature="0"
     id="path2184"
     style="color:#000000;fill:none;stroke:#000000;stroke-width:2;stroke-linecap:butt;stroke-linejoin:miter;stroke-miterlimit:4;stroke-opacity:1;stroke-dasharray:2, 2;stroke-dashoffset:0;marker:none;visibility:visible;display:inline;overflow:visible"
     d="M 172.16928,366.06303 526.16097,13.183621"
     sodipodi:nodetypes="cc" />
  <rect
     id="rect1309"
     style="fill:none;stroke:#000000;stroke-width:1.5;stroke-linecap:butt;stroke-linejoin:miter;stroke-miterlimit:4;stroke-opacity:1;stroke-dasharray:none;stroke-dashoffset:0"
     y="12.90373"
     x="172.64899"
     height="354.28571"
     width="354.28571" />
  <path
     inkscape:connector-curvature="0"
     id="path2186"
     style="color:#000000;fill:none;stroke:#000000;stroke-width:0.99999946;stroke-linecap:butt;stroke-linejoin:miter;stroke-miterlimit:4;stroke-opacity:1;stroke-dasharray:none;stroke-dashoffset:0;marker:none;visibility:visible;display:inline;overflow:visible"
     d="m 349.36547,367.08123 0,-353.179139" />
  <path
     id="path3063"
     style="color:#000000;fill:none;stroke:#000000;stroke-width:3.99999642;stroke-linecap:butt;stroke-linejoin:miter;stroke-miterlimit:4;stroke-opacity:1;stroke-dasharray:none;stroke-dashoffset:0;marker:none;visibility:visible;display:inline;overflow:visible"
     d="M 172.37685,261.30098 349.13161,189.97483 527.3201,13.326833"
     inkscape:connector-curvature="0"
     sodipodi:nodetypes="ccc" />
  <text
     sodipodi:linespacing="100%"
     xml:space="preserve"
     id="text3942"
     style="font-size:20px;font-style:normal;font-variant:normal;font-weight:normal;font-stretch:normal;text-align:end;line-height:100%;writing-mode:lr-tb;text-anchor:end;fill:#000000;fill-opacity:1;stroke:none;font-family:Verdana"
     y="182.00081"
     x="168.46667"><tspan
       id="tspan3952"
       y="182.00081"
       x="168.46667">Output</tspan><tspan
       id="tspan3954"
       y="202.00081"
       x="168.46667">Level</tspan><tspan
       id="tspan6916"
       y="222.00081"
       x="168.46667">(dB)</tspan></text>
  <text
     sodipodi:linespacing="100%"
     xml:space="preserve"
     id="text3946"
     style="font-size:20px;font-style:normal;font-variant:normal;font-weight:normal;font-stretch:normal;text-align:end;line-height:100%;writing-mode:lr-tb;text-anchor:end;fill:#000000;fill-opacity:1;stroke:none;font-family:Verdana"
     y="388.7858"
     x="434.73309"><tspan
       id="tspan3950"
       y="388.7858"
       x="434.73309">Input Level (dB)</tspan></text>
  <text
     sodipodi:linespacing="100%"
     xml:space="preserve"
     id="text3956"
     style="font-size:20px;font-style:normal;font-variant:normal;font-weight:normal;font-stretch:normal;text-align:end;line-height:100%;writing-mode:lr-tb;text-anchor:end;fill:#000000;fill-opacity:1;stroke:none;font-family:Verdana"
     y="361.3226"
     x="455.91028"><tspan
       id="tspan3958"
       y="361.3226"
       x="455.91028">Threshold</tspan></text>
  <path
     inkscape:connector-curvature="0"
     id="path3960"
     style="color:#000000;fill:none;stroke:#000000;stroke-width:0.99999982;stroke-linecap:butt;stroke-linejoin:miter;stroke-miterlimit:4;stroke-opacity:1;stroke-dasharray:none;stroke-dashoffset:0;marker:none;marker-start:url(#Arrow2Lstart);marker-end:url(#Arrow2Lend);visibility:visible;display:inline;overflow:visible"
     d="m 163.95982,280.84553 0,70.99698" />
  <text
     sodipodi:linespacing="100%"
     xml:space="preserve"
     id="text4144"
     style="font-size:20px;font-style:normal;font-variant:normal;font-weight:normal;font-stretch:normal;text-align:end;line-height:100%;writing-mode:lr-tb;text-anchor:end;fill:#000000;fill-opacity:1;stroke:none;font-family:Verdana;-inkscape-font-specification:Verdana"
     y="312.91855"
     x="157.29375"><tspan
       sodipodi:role="line"
       id="tspan3029"
       x="157.29375"
       y="312.91855">Gain</tspan><tspan
       sodipodi:role="line"
       id="tspan3031"
       x="157.29375"
       y="332.91855">Increase</tspan></text>
  <path
     inkscape:connector-curvature="0"
     id="rect4155"
     style="fill:none;stroke:#000000;stroke-width:1.00000024;stroke-linecap:butt;stroke-linejoin:miter;stroke-miterlimit:4;stroke-opacity:0.25280899;stroke-dashoffset:0"
     d="m 172.84896,13.591941 35.42858,0 0,353.123949 -35.42858,0 0,-353.123949 z m 70.85716,0 35.42857,0 0,353.123949 -35.42857,0 0,-353.123949 z m 70.85715,0 35.42857,0 0,353.123949 -35.42857,0 0,-353.123949 z m 141.71426,0 35.42857,0 0,353.123949 -35.42857,0 0,-353.123949 z m -70.85714,0 35.42857,0 0,353.123949 -35.42857,0 0,-353.123949 z" />
  <path
     inkscape:connector-curvature="0"
     id="path6011"
     style="fill:none;stroke:#000000;stroke-width:1;stroke-linecap:butt;stroke-linejoin:miter;stroke-miterlimit:4;stroke-opacity:0.25280899;stroke-dashoffset:0"
     d="m 526.53996,13.023821 0,35.42857 -353.87522,0 0,-35.42857 353.87522,0 z m 0,70.85716 0,35.428569 -353.87522,0 0,-35.428569 353.87522,0 z m 0,70.857149 0,35.42857 -353.87522,0 0,-35.42857 353.87522,0 z m 0,141.71426 0,35.42857 -353.87522,0 0,-35.42857 353.87522,0 z m 0,-70.85714 0,35.42857 -353.87522,0 0,-35.42857 353.87522,0 z" />
</svg>
